<svg width="14" height="8" viewBox="0 0 14 8" fill="none" xmlns="http://www.w3.org/2000/svg">
<path d="M1.41403 0H12.586C12.7838 4.22242e-05 12.9771 0.0587138 13.1415 0.168598C13.3059 0.278482 13.434 0.434645 13.5097 0.617345C13.5854 0.800044 13.6052 1.00108 13.5666 1.19503C13.528 1.38898 13.4328 1.56715 13.293 1.707L7.70703 7.29299C7.5195 7.48046 7.2652 7.58577 7.00003 7.58577C6.73487 7.58577 6.48056 7.48046 6.29303 7.29299L0.707032 1.707C0.567223 1.56715 0.472017 1.38898 0.433449 1.19503C0.394881 1.00108 0.414685 0.800044 0.490355 0.617345C0.566025 0.434645 0.694164 0.278482 0.858574 0.168598C1.02298 0.0587138 1.21628 4.22242e-05 1.41403 0Z" fill="#595959"/>
</svg>
