<svg width="22" height="23" viewBox="0 0 22 23" fill="none" xmlns="http://www.w3.org/2000/svg">
<g clip-path="url(#clip0_8_324)">
<path d="M15.3508 0H5.70164C4.42258 0.00171307 3.19638 0.538182 2.29195 1.49175C1.38752 2.44532 0.8787 3.73815 0.877075 5.08671V18.9336C0.877735 19.5814 1.06269 20.214 1.40803 20.7497C1.75336 21.2854 2.2432 21.6996 2.81418 21.9387C3.38517 22.1777 4.01104 22.2306 4.61087 22.0906C5.2107 21.9506 5.7569 21.6241 6.17883 21.1533L10.4876 16.344L14.885 21.1995C15.3082 21.6668 15.8544 21.9898 16.4533 22.1269C17.0521 22.2641 17.6762 22.2092 18.2452 21.9693C18.8142 21.7294 19.3021 21.3154 19.6461 20.7807C19.99 20.2459 20.1744 19.6149 20.1753 18.9688V5.08671C20.1737 3.73815 19.6649 2.44532 18.7604 1.49175C17.856 0.538182 16.6298 0.00171307 15.3508 0V0ZM17.5437 18.9688C17.5436 19.061 17.5173 19.1511 17.4682 19.2274C17.4191 19.3037 17.3495 19.3629 17.2683 19.3972C17.1871 19.4315 17.098 19.4394 17.0125 19.4199C16.927 19.4004 16.849 19.3544 16.7885 19.2879L11.4376 13.3771C11.3143 13.241 11.166 13.1328 11.0018 13.059C10.8376 12.9852 10.6608 12.9474 10.4823 12.948C10.3039 12.9485 10.1274 12.9874 9.96365 13.0621C9.79988 13.1368 9.65224 13.2459 9.52971 13.3827L4.26655 19.2509C4.20781 19.3208 4.12961 19.3694 4.04312 19.3896C3.95663 19.4099 3.86627 19.4008 3.78497 19.3637C3.70122 19.3328 3.62913 19.2743 3.57936 19.1968C3.5296 19.1194 3.50481 19.0271 3.50865 18.9336V5.08671C3.50865 4.47349 3.7397 3.88539 4.15096 3.45178C4.56223 3.01817 5.12002 2.77457 5.70164 2.77457H15.3508C15.9324 2.77457 16.4902 3.01817 16.9014 3.45178C17.3127 3.88539 17.5437 4.47349 17.5437 5.08671V18.9688Z" fill="#F45452"/>
</g>
<defs>
<clipPath id="clip0_8_324">
<rect width="21.0526" height="22.1965" fill="white"/>
</clipPath>
</defs>
</svg>
