<svg width="24" height="25" viewBox="0 0 24 25" fill="none" xmlns="http://www.w3.org/2000/svg">
<g clip-path="url(#clip0_8_175)">
<path d="M21 12.25V15.75H18C17.2044 15.75 16.4413 16.0661 15.8787 16.6287C15.3161 17.1913 15 17.9544 15 18.75V21.75H4.5C4.10218 21.75 3.72064 21.592 3.43934 21.3107C3.15804 21.0294 3 20.6478 3 20.25V5.25C3 4.85218 3.15804 4.47064 3.43934 4.18934C3.72064 3.90804 4.10218 3.75 4.5 3.75H13.5C13.8978 3.75 14.2794 3.59196 14.5607 3.31066C14.842 3.02936 15 2.64782 15 2.25C15 1.85218 14.842 1.47064 14.5607 1.18934C14.2794 0.908035 13.8978 0.75 13.5 0.75L4.5 0.75C3.30653 0.75 2.16193 1.22411 1.31802 2.06802C0.474106 2.91193 0 4.05653 0 5.25L0 20.25C0 21.4435 0.474106 22.5881 1.31802 23.432C2.16193 24.2759 3.30653 24.75 4.5 24.75H16.484C17.677 24.75 18.8212 24.2763 19.665 23.433L22.682 20.416C23.5257 19.5723 23.9997 18.4281 24 17.235V12.25C24 11.8522 23.842 11.4706 23.5607 11.1893C23.2794 10.908 22.8978 10.75 22.5 10.75C22.1022 10.75 21.7206 10.908 21.4393 11.1893C21.158 11.4706 21 11.8522 21 12.25Z" fill="#222222"/>
<path d="M17.7929 2.54295L5.29292 15.0429C5.10537 15.2304 4.99998 15.4848 4.99992 15.7499V18.7499C4.99992 19.0152 5.10528 19.2695 5.29281 19.4571C5.48035 19.6446 5.7347 19.7499 5.99992 19.7499H8.99992C9.26511 19.7499 9.51943 19.6445 9.70692 19.4569L22.0379 7.12595C22.4552 6.72359 22.7619 6.22065 22.9286 5.66549C23.0954 5.11033 23.1165 4.52162 22.9899 3.95595C22.8483 3.42985 22.5714 2.95003 22.1866 2.56429C21.8019 2.17855 21.3228 1.90036 20.7971 1.75742C20.2714 1.61448 19.7174 1.61179 19.1903 1.74961C18.6632 1.88744 18.1814 2.16096 17.7929 2.54295Z" fill="#222222"/>
</g>
<defs>
<clipPath id="clip0_8_175">
<rect width="24" height="24" fill="white" transform="translate(0 0.75)"/>
</clipPath>
</defs>
</svg>
