<svg width="24" height="24" viewBox="0 0 24 24" fill="none" xmlns="http://www.w3.org/2000/svg">
<g clip-path="url(#clip0_14_16984)">
<path d="M21.0003 21.9493C21.0003 19.4641 18.9856 17.4493 16.5003 17.4493H10.8323V19.1293C10.83 20.3521 9.83683 21.3414 8.6141 21.3391C8.00219 21.3379 7.41804 21.0835 7.00033 20.6363L0.778285 13.9414C-0.258777 12.8154 -0.258777 11.0823 0.778285 9.95637L7.00029 3.26135C7.83194 2.36501 9.2328 2.31256 10.1291 3.14421C10.581 3.56342 10.8376 4.15198 10.8373 4.76834V6.44932H14.5003C19.7445 6.45542 23.9943 10.7051 24.0003 15.9493V21.9493C24.0003 22.7778 23.3287 23.4493 22.5003 23.4493C21.6719 23.4493 21.0003 22.7778 21.0003 21.9493ZM21.0003 15.9493C20.9959 12.3613 18.0883 9.45373 14.5003 9.44932H9.33232C8.50389 9.44932 7.83232 8.77774 7.83232 7.94932V6.74932L2.97728 11.9004L7.83227 17.1284V15.9494C7.83227 15.121 8.50385 14.4494 9.33227 14.4494H16.5003C18.1239 14.4474 19.7038 14.975 21.0003 15.9524V15.9493Z" fill="#595959"/>
</g>
<defs>
<clipPath id="clip0_14_16984">
<rect width="24" height="24" fill="white"/>
</clipPath>
</defs>
</svg>
