<svg width="22" height="24" viewBox="0 0 22 24" fill="none" xmlns="http://www.w3.org/2000/svg">
<path d="M16.4998 0H5.49976C4.04163 0.00185226 2.64376 0.58191 1.61271 1.61296C0.581665 2.64401 0.00160812 4.04188 -0.000244141 5.5V20.472C0.0005079 21.1724 0.211359 21.8564 0.605042 22.4356C0.998725 23.0149 1.55713 23.4627 2.20806 23.7212C2.85898 23.9796 3.57248 24.0369 4.25628 23.8855C4.94009 23.7341 5.56275 23.3811 6.04376 22.872L10.9558 17.672L15.9688 22.922C16.4513 23.4272 17.074 23.7764 17.7566 23.9248C18.4393 24.0731 19.1508 24.0137 19.7994 23.7543C20.4481 23.4949 21.0043 23.0473 21.3964 22.4691C21.7885 21.8909 21.9987 21.2086 21.9998 20.51V5.5C21.9979 4.04188 21.4178 2.64401 20.3868 1.61296C19.3557 0.58191 17.9579 0.00185226 16.4998 0V0ZM18.9998 20.51C18.9996 20.6097 18.9696 20.7071 18.9136 20.7896C18.8577 20.8722 18.7783 20.9361 18.6857 20.9732C18.5932 21.0103 18.4916 21.0188 18.3942 20.9978C18.2967 20.9767 18.2077 20.927 18.1388 20.855L12.0388 14.464C11.8982 14.3168 11.7292 14.1998 11.542 14.12C11.3547 14.0403 11.1533 13.9994 10.9498 14C10.7463 14.0006 10.5451 14.0426 10.3584 14.1234C10.1718 14.2042 10.0034 14.3221 9.86376 14.47L3.86376 20.815C3.7968 20.8906 3.70765 20.9431 3.60905 20.9651C3.51044 20.987 3.40744 20.9771 3.31476 20.937C3.21928 20.9036 3.13709 20.8403 3.08036 20.7566C3.02363 20.6728 2.99537 20.5731 2.99976 20.472V5.5C2.99976 4.83696 3.26315 4.20107 3.73199 3.73223C4.20083 3.26339 4.83671 3 5.49976 3H16.4998C17.1628 3 17.7987 3.26339 18.2675 3.73223C18.7364 4.20107 18.9998 4.83696 18.9998 5.5V20.51Z" fill="white"/>
</svg>
