<svg width="22" height="24" viewBox="0 0 22 24" fill="none" xmlns="http://www.w3.org/2000/svg">
<path d="M1.84917 23.55C2.39522 23.7834 2.99892 23.8467 3.58153 23.7319C4.16413 23.617 4.69859 23.3292 5.11517 22.906L11.0002 17.053L16.8852 22.906C17.1596 23.1844 17.4865 23.4056 17.8469 23.5568C18.2074 23.7081 18.5943 23.7863 18.9852 23.787C19.387 23.7858 19.7846 23.7053 20.1552 23.55C20.7057 23.3272 21.1762 22.9436 21.5054 22.4493C21.8345 21.9549 22.0069 21.3728 22.0002 20.779V5C21.9986 3.6744 21.4713 2.40356 20.534 1.46622C19.5966 0.528882 18.3258 0.00158786 17.0002 0L5.00017 0C3.67458 0.00158786 2.40373 0.528882 1.46639 1.46622C0.529056 2.40356 0.001762 3.6744 0.000174146 5V20.779C-0.00627903 21.3733 0.16675 21.9557 0.496638 22.4501C0.826525 22.9445 1.29792 23.3278 1.84917 23.55Z" fill="white"/>
</svg>
