<svg width="24" height="24" viewBox="0 0 24 24" fill="none" xmlns="http://www.w3.org/2000/svg">
<g clip-path="url(#clip0_22_19034)">
<path d="M22.8243 1.176C22.0599 0.44565 21.0434 0.0380859 19.9863 0.0380859C18.9291 0.0380859 17.9126 0.44565 17.1483 1.176L1.61126 16.713C1.09917 17.2223 0.693124 17.828 0.416604 18.4952C0.140083 19.1624 -0.00142644 19.8778 0.000259021 20.6V22.5C0.000259021 22.8978 0.158294 23.2794 0.439599 23.5607C0.720903 23.842 1.10243 24 1.50026 24H3.40026C4.12281 24.0019 4.83858 23.8606 5.50612 23.584C6.17367 23.3075 6.77974 22.9013 7.28926 22.389L22.8243 6.852C23.5759 6.09874 23.998 5.07809 23.998 4.014C23.998 2.9499 23.5759 1.92926 22.8243 1.176ZM5.16626 20.268C4.69664 20.7346 4.06224 20.9975 3.40026 21H3.00026V20.6C3.00231 19.9373 3.26529 19.3022 3.73226 18.832L15.3003 7.267L16.7333 8.7L5.16626 20.268ZM20.7003 4.731L18.8543 6.58L17.4203 5.146L19.2703 3.3C19.4632 3.11558 19.7198 3.01266 19.9868 3.01266C20.2537 3.01266 20.5103 3.11558 20.7033 3.3C20.8919 3.49056 20.9974 3.748 20.9968 4.01612C20.9963 4.28423 20.8897 4.54123 20.7003 4.731Z" fill="white"/>
</g>
<defs>
<clipPath id="clip0_22_19034">
<rect width="24" height="24" fill="white"/>
</clipPath>
</defs>
</svg>
