<svg width="14" height="14" viewBox="0 0 14 14" fill="none" xmlns="http://www.w3.org/2000/svg">
<path d="M9.12108 6.99976L13.0001 3.11676C13.2519 2.83052 13.3853 2.45912 13.3732 2.07805C13.361 1.69698 13.2042 1.33485 12.9346 1.06526C12.665 0.795666 12.3029 0.638849 11.9218 0.626682C11.5407 0.614516 11.1693 0.747913 10.8831 0.999759L7.00008 4.87876L3.11008 0.987759C2.97074 0.848427 2.80533 0.737902 2.62329 0.662496C2.44124 0.58709 2.24612 0.548279 2.04908 0.548279C1.85203 0.548279 1.65691 0.58709 1.47487 0.662496C1.29282 0.737902 1.12741 0.848427 0.988077 0.987759C0.848744 1.12709 0.73822 1.2925 0.662814 1.47455C0.587408 1.6566 0.548597 1.85171 0.548597 2.04876C0.548597 2.2458 0.587408 2.44092 0.662814 2.62297C0.73822 2.80501 0.848744 2.97043 0.988077 3.10976L4.87908 6.99976L1.00008 10.8818C0.84795 11.0177 0.725167 11.1833 0.63924 11.3684C0.553314 11.5535 0.506051 11.7541 0.500343 11.9581C0.494635 12.1621 0.530601 12.3651 0.606042 12.5547C0.681483 12.7443 0.794812 12.9165 0.939096 13.0607C1.08338 13.205 1.25558 13.3184 1.44517 13.3938C1.63476 13.4692 1.83775 13.5052 2.04172 13.4995C2.24569 13.4938 2.44635 13.4465 2.63142 13.3606C2.81649 13.2747 2.98209 13.1519 3.11808 12.9998L7.00008 9.12076L10.8781 12.9998C11.1595 13.2812 11.5411 13.4392 11.9391 13.4392C12.337 13.4392 12.7187 13.2812 13.0001 12.9998C13.2815 12.7184 13.4396 12.3367 13.4396 11.9388C13.4396 11.5408 13.2815 11.1592 13.0001 10.8778L9.12108 6.99976Z" fill="#222222"/>
</svg>
