<svg width="12" height="30" viewBox="0 0 12 30" fill="none" xmlns="http://www.w3.org/2000/svg">
<path d="M0.0791016 28.1249C0.0794517 27.6278 0.237717 27.1512 0.519102 26.7999L8.1911 17.2099C8.42332 16.9197 8.60753 16.5752 8.7332 16.196C8.85888 15.8168 8.92357 15.4104 8.92357 14.9999C8.92357 14.5895 8.85888 14.183 8.7332 13.8038C8.60753 13.4246 8.42332 13.0801 8.1911 12.7899L0.529101 3.20615C0.255864 2.85252 0.104673 2.37889 0.10809 1.88727C0.111508 1.39565 0.269262 0.92538 0.547374 0.577739C0.825486 0.230099 1.2017 0.0329074 1.595 0.0286353C1.9883 0.0243633 2.3672 0.213353 2.6501 0.554899L10.3121 10.1312C11.3423 11.4215 11.9209 13.17 11.9209 14.993C11.9209 16.816 11.3423 18.5646 10.3121 19.8549L2.6401 29.4449C2.43062 29.7069 2.16374 29.8855 1.87315 29.9581C1.58255 30.0307 1.28126 29.9941 1.00729 29.8529C0.73332 29.7117 0.498952 29.4722 0.33376 29.1647C0.168567 28.8571 0.0799539 28.4953 0.0791016 28.1249Z" fill="#222222"/>
</svg>
