<svg width="24" height="25" viewBox="0 0 24 25" fill="none" xmlns="http://www.w3.org/2000/svg">
<path d="M23.5612 21.6955L18.9161 17.0484C22.3918 12.4036 21.4441 5.82058 16.7993 2.34486C12.1545 -1.13086 5.57151 -0.183144 2.09579 4.46163C-1.37993 9.1064 -0.432213 15.6894 4.21256 19.1651C7.94363 21.9571 13.0682 21.9571 16.7993 19.1651L21.4464 23.8122C22.0304 24.3962 22.9772 24.3962 23.5612 23.8122C24.1451 23.2282 24.1451 22.2814 23.5612 21.6975L23.5612 21.6955ZM10.5446 18.2682C6.41659 18.2682 3.07018 14.9218 3.07018 10.7937C3.07018 6.66566 6.41659 3.31925 10.5446 3.31925C14.6727 3.31925 18.0191 6.66566 18.0191 10.7937C18.0147 14.9199 14.6709 18.2638 10.5446 18.2682Z" fill="#222222"/>
</svg>
