<svg width="12" height="30" viewBox="0 0 12 30" fill="none" xmlns="http://www.w3.org/2000/svg">
<path d="M11.9209 1.88122C11.9206 2.37834 11.7623 2.85493 11.4809 3.20622L3.80895 12.7962C3.57673 13.0864 3.39252 13.431 3.26684 13.8101C3.14117 14.1893 3.07648 14.5958 3.07648 15.0062C3.07648 15.4167 3.14117 15.8231 3.26684 16.2023C3.39252 16.5815 3.57673 16.926 3.80895 17.2162L11.4709 26.7937C11.7442 27.1474 11.8954 27.621 11.892 28.1126C11.8885 28.6042 11.7308 29.0745 11.4527 29.4221C11.1746 29.7698 10.7983 29.967 10.405 29.9712C10.0118 29.9755 9.63285 29.7865 9.34995 29.445L1.68795 19.875C0.657711 18.5846 0.0791016 16.8361 0.0791016 15.0131C0.0791016 13.1901 0.657711 11.4416 1.68795 10.1512L9.35995 0.554972C9.56973 0.292577 9.83706 0.113864 10.1281 0.0414461C10.4192 -0.0309716 10.7209 0.00616108 10.9951 0.148145C11.2692 0.29013 11.5036 0.530584 11.6684 0.839083C11.8332 1.14758 11.9211 1.51026 11.9209 1.88122Z" fill="#222222"/>
</svg>
