<svg width="15" height="15" viewBox="0 0 15 15" fill="none" xmlns="http://www.w3.org/2000/svg">
<g clip-path="url(#clip0_95_1017)">
<path d="M14.0627 0.735121C13.5917 0.278654 12.9654 0.0239258 12.3141 0.0239258C11.6627 0.0239258 11.0364 0.278654 10.5655 0.735121L0.992602 10.4457C0.677086 10.764 0.426908 11.1426 0.256533 11.5596C0.0861594 11.9766 -0.0010293 12.4237 9.16845e-06 12.8751V14.0626C9.16845e-06 14.3113 0.0973802 14.5497 0.270702 14.7255C0.444023 14.9013 0.679098 15.0001 0.924211 15.0001H2.09487C2.54006 15.0013 2.98107 14.913 3.39236 14.7401C3.80366 14.5673 4.17708 14.3135 4.49102 13.9932L14.0627 4.28262C14.5258 3.81183 14.7858 3.17393 14.7858 2.50887C14.7858 1.84381 14.5258 1.20591 14.0627 0.735121ZM3.18296 12.6676C2.89362 12.9592 2.50274 13.1236 2.09487 13.1251H1.84841V12.8751C1.84968 12.461 2.01171 12.064 2.29942 11.7701L9.42687 4.542L10.3098 5.43762L3.18296 12.6676ZM12.754 2.957L11.6166 4.11262L10.7331 3.21637L11.8729 2.06262C11.9918 1.94736 12.1499 1.88304 12.3144 1.88304C12.4788 1.88304 12.637 1.94736 12.7558 2.06262C12.8721 2.18172 12.9371 2.34263 12.9367 2.5102C12.9364 2.67777 12.8707 2.83839 12.754 2.957Z" fill="#595959"/>
</g>
<defs>
<clipPath id="clip0_95_1017">
<rect width="14.7872" height="15" fill="white"/>
</clipPath>
</defs>
</svg>
