<svg width="24" height="24" viewBox="0 0 24 24" fill="none" xmlns="http://www.w3.org/2000/svg">
<g clip-path="url(#clip0_420_1005)">
<path d="M2.84899 23.55C3.39504 23.7834 3.99874 23.8467 4.58134 23.7319C5.16395 23.617 5.6984 23.3292 6.11499 22.906L12 17.053L17.885 22.906C18.1594 23.1844 18.4863 23.4056 18.8467 23.5568C19.2072 23.7081 19.5941 23.7863 19.985 23.787C20.3868 23.7858 20.7844 23.7053 21.155 23.55C21.7055 23.3272 22.176 22.9436 22.5052 22.4493C22.8343 21.9549 23.0068 21.3728 23 20.779V5C22.9984 3.6744 22.4711 2.40356 21.5338 1.46622C20.5964 0.528882 19.3256 0.00158786 18 0L5.99999 0C4.6744 0.00158786 3.40355 0.528882 2.46621 1.46622C1.52887 2.40356 1.00158 3.6744 0.999991 5V20.779C0.993538 21.3733 1.16657 21.9557 1.49645 22.4501C1.82634 22.9445 2.29773 23.3278 2.84899 23.55V23.55Z" fill="#595959"/>
</g>
<defs>
<clipPath id="clip0_420_1005">
<rect width="24" height="24" fill="white"/>
</clipPath>
</defs>
</svg>
