<svg width="22" height="24" viewBox="0 0 22 24" fill="none" xmlns="http://www.w3.org/2000/svg">
<path d="M16.4998 0H5.49982C4.04169 0.00185226 2.64382 0.58191 1.61278 1.61296C0.581726 2.64401 0.00166915 4.04188 -0.000183105 5.5V20.472C0.000568935 21.1724 0.21142 21.8564 0.605103 22.4356C0.998786 23.0149 1.55719 23.4627 2.20812 23.7212C2.85904 23.9796 3.57254 24.0369 4.25634 23.8855C4.94015 23.7341 5.56282 23.3811 6.04382 22.872L10.9558 17.672L15.9688 22.922C16.4513 23.4272 17.074 23.7764 17.7567 23.9248C18.4394 24.0731 19.1508 24.0137 19.7995 23.7543C20.4482 23.4949 21.0043 23.0473 21.3965 22.4691C21.7886 21.8909 21.9987 21.2086 21.9998 20.51V5.5C21.998 4.04188 21.4179 2.64401 20.3869 1.61296C19.3558 0.58191 17.9579 0.00185226 16.4998 0V0ZM18.9998 20.51C18.9996 20.6097 18.9696 20.7071 18.9137 20.7896C18.8577 20.8722 18.7784 20.9361 18.6858 20.9732C18.5932 21.0103 18.4917 21.0188 18.3942 20.9978C18.2968 20.9767 18.2078 20.927 18.1388 20.855L12.0388 14.464C11.8983 14.3168 11.7292 14.1998 11.542 14.12C11.3548 14.0403 11.1533 13.9994 10.9498 14C10.7464 14.0006 10.5452 14.0426 10.3585 14.1234C10.1718 14.2042 10.0035 14.3221 9.86382 14.47L3.86382 20.815C3.79686 20.8906 3.70771 20.9431 3.60911 20.9651C3.51051 20.987 3.4075 20.9771 3.31482 20.937C3.21934 20.9036 3.13716 20.8403 3.08042 20.7566C3.02369 20.6728 2.99543 20.5731 2.99982 20.472V5.5C2.99982 4.83696 3.26321 4.20107 3.73205 3.73223C4.20089 3.26339 4.83678 3 5.49982 3H16.4998C17.1629 3 17.7987 3.26339 18.2676 3.73223C18.7364 4.20107 18.9998 4.83696 18.9998 5.5V20.51Z" fill="#ffffff"/>
</svg>
