<svg width="24" height="20" viewBox="0 0 24 20" fill="none" xmlns="http://www.w3.org/2000/svg">
<path d="M23.0382 6.88383C20.6097 3.13707 16.4637 0.858295 11.999 0.816406C7.53424 0.858295 3.38824 3.13707 0.959815 6.88383C-0.319938 8.76195 -0.319938 11.2319 0.959815 13.1101C3.38687 16.8592 7.53311 19.1403 11.999 19.1836C16.4637 19.1417 20.6097 16.8629 23.0382 13.1161C24.3206 11.2366 24.3206 8.76332 23.0382 6.88383ZM20.5533 11.4073C18.6992 14.348 15.4753 16.1422 11.999 16.1679C8.52266 16.1422 5.29873 14.348 3.44464 11.4073C2.86663 10.5581 2.86663 9.44183 3.44464 8.5927C5.29868 5.65195 8.52261 3.8578 11.999 3.83203C15.4753 3.85775 18.6992 5.65195 20.5533 8.5927C21.1313 9.44183 21.1313 10.5581 20.5533 11.4073Z" fill="#595959"/>
<path d="M11.9988 14.0206C14.2195 14.0206 16.0196 12.2204 16.0196 9.99981C16.0196 7.77918 14.2195 5.979 11.9988 5.979C9.77821 5.979 7.97803 7.77918 7.97803 9.99981C7.97803 12.2204 9.77821 14.0206 11.9988 14.0206Z" fill="#595959"/>
</svg>
