<svg width="24" height="14" viewBox="0 0 24 14" fill="none" xmlns="http://www.w3.org/2000/svg">
<path d="M4.94296 0.606004L1.02396 4.52501C0.387588 5.19187 0.0325317 6.07823 0.0325317 7.00001C0.0325317 7.92179 0.387588 8.80815 1.02396 9.47501L4.94296 13.394C5.08133 13.5373 5.24685 13.6516 5.42986 13.7302C5.61286 13.8088 5.80969 13.8502 6.00886 13.8519C6.20803 13.8536 6.40555 13.8157 6.58989 13.7402C6.77424 13.6648 6.94172 13.5534 7.08256 13.4126C7.2234 13.2718 7.33477 13.1043 7.4102 12.9199C7.48562 12.7356 7.52357 12.5381 7.52184 12.3389C7.52011 12.1397 7.47873 11.9429 7.40012 11.7599C7.3215 11.5769 7.20723 11.4114 7.06396 11.273L4.28496 8.49201L22.535 8.46901C22.9328 8.46901 23.3143 8.31097 23.5956 8.02967C23.8769 7.74836 24.035 7.36683 24.035 6.96901C24.035 6.57118 23.8769 6.18965 23.5956 5.90835C23.3143 5.62704 22.9328 5.46901 22.535 5.46901L4.29996 5.49201L7.06396 2.72701C7.3372 2.4441 7.48839 2.0652 7.48497 1.6719C7.48156 1.27861 7.3238 0.902389 7.04569 0.624277C6.76758 0.346165 6.39136 0.188411 5.99806 0.184993C5.60477 0.181576 5.22587 0.332767 4.94296 0.606004Z" fill="#222222"/>
</svg>
