<svg width="24" height="24" viewBox="0 0 24 24" fill="none" xmlns="http://www.w3.org/2000/svg">
<path d="M17.9209 1.50498C17.9206 1.90267 17.7623 2.28395 17.4809 2.56498L9.80895 10.237C9.57673 10.4691 9.39252 10.7448 9.26684 11.0481C9.14117 11.3515 9.07648 11.6766 9.07648 12.005C9.07648 12.3333 9.14117 12.6585 9.26684 12.9618C9.39252 13.2652 9.57673 13.5408 9.80895 13.773L17.4709 21.435C17.7442 21.7179 17.8954 22.0968 17.892 22.4901C17.8885 22.8834 17.7308 23.2596 17.4527 23.5377C17.1746 23.8158 16.7983 23.9736 16.405 23.977C16.0118 23.9804 15.6329 23.8292 15.3499 23.556L7.68795 15.9C6.65771 14.8677 6.0791 13.4689 6.0791 12.0105C6.0791 10.5521 6.65771 9.15325 7.68795 8.12099L15.3599 0.443984C15.5697 0.234068 15.8371 0.0910971 16.1281 0.0331629C16.4192 -0.0247712 16.7209 0.00493497 16.9951 0.118522C17.2692 0.23211 17.5036 0.424474 17.6684 0.671272C17.8332 0.918071 17.9211 1.20821 17.9209 1.50498Z" fill="#222222"/>
</svg>
